<?xml version="1.0" encoding="utf-8"?>
<!-- Generator: Adobe Illustrator 26.0.1, SVG Export Plug-In . SVG Version: 6.00 Build 0)  -->
<svg version="1.1" id="Layer_1" focusable="false" xmlns="http://www.w3.org/2000/svg" xmlns:xlink="http://www.w3.org/1999/xlink"
	 x="0px" y="0px" viewBox="0 0 800 800" style="enable-background:new 0 0 800 800;" xml:space="preserve">
<style type="text/css">
	.st0{fill:#7E53A3;}
	.st1{fill:#77489F;}
	.st2{fill:#75459D;}
	.st3{fill:#FEFEFE;}
	.st4{fill:#7C50A2;}
	.st5{fill:#75459E;}
	.st6{fill:#7749A0;}
	.st7{fill:#76469F;}
	.st8{fill:#784AA0;}
	.st9{fill:#7A4DA1;}
	.st10{fill:#75469E;}
	.st11{fill:#9979B6;}
	.st12{fill:#74449D;}
	.st13{fill:#7849A0;}
	.st14{fill:#74439D;}
</style>
<g>
	<path class="st0" d="M677.7,209.6c33.4,7.7,53.8,28.2,61.4,61.5c-1.8,72.1-2.2,144.3,0.2,216.4c-3,34.3-43.3,66.9-80.8,66.2
		c-61.2-1.2-122.5-0.3-185.5-0.3c7.9,23.1,15.2,44.7,23.7,69.8c-37.5-21.9-71.9-41.7-105.9-62c-9.2-5.5-18.4-7.9-29.1-7.9
		c-78.1,0.3-156.2,0.2-234.2,0.1c-55.1-0.1-88.5-32.9-88.6-87.3c-0.2-58.7-0.3-117.4,0.1-176c0.3-42.1,24.9-71.8,65.7-80.6
		c4.9,2.4,10.2,1.4,15.3,1.4c180.9,0,361.7,0,542.6,0C667.5,210.8,672.7,211.6,677.7,209.6z"/>
	<path class="st1" d="M677.7,209.6c-6.2,5.4-13.6,3-20.4,3c-177.5,0.1-354.9,0.1-532.4,0c-6.8,0-14.3,2.5-20.3-3.3
		c7.1-0.5,14.1-1.4,21.2-1.4c176.3-0.1,352.6-0.1,528.9,0C662.3,208,670,209,677.7,209.6z"/>
	<path class="st2" d="M739.3,487.5c-3.8-3.5-3.2-8.1-3.2-12.6c0-63.7,0-127.4,0-191.1c0-4.5-0.6-9.1,3-12.7
		C741.8,343.2,741.4,415.4,739.3,487.5z"/>
	<path class="st3" d="M367.3,278.4c-19.2,44.6-28.1,91.8-33.7,139.7c1.4,5,2.9,10-1,14.6c-4,6.3-3.4,13.3-2.8,20.2
		c0.9,18,4.4,36.1-1.9,53.8c-11.1,22.7-33.5,16.7-52.4-10.7c-21.6-31.3-39.1-64.5-48-101.8c-8.5,1.9-8.6,8.4-10.7,13.2
		c-15.2,34.2-33.4,66.8-54.8,97.4c-14.9,21.3-30.8,19.5-41.5-4.3c-17.8-39.7-23.2-82.7-31.4-124.9c-4.9-25.2-8.1-50.8-13.8-75.9
		c-4-17.8-1-31.7,13.9-42.6c5.4-7.8,10.3-3.2,15.1,0.7c12.6,7.6,17.5,18.9,20,33.3c6.6,38,14.7,75.8,22.5,113.6
		c0.7,3.6-2.4,9.9,5.2,10.1c5.9,0.1,7-5,9-8.8c13.4-25.7,26.6-51.5,39.9-77.2c2.7-5.1,5.4-10.3,8.4-15.2
		c6.8-11.3,14.1-22.4,29.8-20.2c17.1,2.5,17.1,17.2,19.6,29.5c4.4,22.1,9.9,43.7,19.5,64.2c2,1,3.3,2.6,4,4.5
		c2.4-0.8,0.6-3.2,1.7-4.4c2.3-4.9-1.4-10.9,3.2-15.2c8.4-36.1,16.3-72.3,31-106.6c10.1-23.7,32.8-26.6,49.2-6.3
		C371.3,265.7,371,272,367.3,278.4z"/>
	<path class="st3" d="M704.3,382.1c-5.7,25.1-13.7,48.9-27.6,71.1c-13.7,21.8-35.3,32.2-56.8,40.4c-12.1,4.6-28.1-3.9-41.4-10.1
		c-8-2.6-12.8-8.6-16.6-15.7c-27.6-44.1-25.3-89.7-7.4-136.4c11.2-29.4,32.4-46.8,61.6-55.9c8.8-4.3,17.7-3.3,26.7-0.5
		c41.2,13.7,55.5,46.8,61.9,85.6C707.9,367.7,708.5,374.9,704.3,382.1z"/>
	<path class="st3" d="M468.1,275c48.9,21.6,70.8,68,57,124c-10.8,43.9-33,79-79.3,93.7c-16.7,5.3-48.6-11-62.4-31.4
		c-12.4-18.4-14.7-39.3-19-59.9c-3.6-4.5-3.9-9,0.1-13.4c4.4-19.3,7.4-38.8,15-57.6c11.8-29.3,33.2-46.5,62.5-55.3
		C450.8,271.4,459.5,271.6,468.1,275z"/>
	<path class="st4" d="M371,548.8c-86.2,0-172.4,0-258.6,0c0-0.6,0-1.3,0-1.9c86.1,0,172.1,0,258.2,0
		C370.7,547.5,370.9,548.1,371,548.8z"/>
	<ellipse class="st4" cx="572.9" cy="547.6" rx="136" ry="1"/>
	<path class="st5" d="M327.8,506.8c0.6-17.9,1.3-35.9,1.9-53.8C334.1,471.1,337.1,489.2,327.8,506.8z"/>
	<path class="st5" d="M468.1,275c-8.7,0-17.3,0.1-26,0.1c7.8-8.7,17.5-3.1,26.4-3.2c0.2,0,0.6,1,0.5,1.5
		C468.9,273.9,468.5,274.4,468.1,275z"/>
	<path class="st5" d="M642.7,274.9c-8.9,0.2-17.8,0.3-26.7,0.5c8-8.2,17.7-3.8,26.8-3.7c0.3,0,0.7,1,0.7,1.5
		C643.5,273.7,643,274.3,642.7,274.9z"/>
	<path class="st6" d="M704.3,382.1c0.1-7.2,0.2-14.4,0.3-21.6c8.8,6.6,3.2,15,2.8,22.7c0,0.1-1.2,0.2-1.7,0
		C705.2,383,704.8,382.5,704.3,382.1z"/>
	<path class="st7" d="M286.9,372.2c-0.3,6.2-0.7,12.4-1,18.6c-1.6,2.4-2.5,5.9-6.6,3.6c-0.4-2.4-0.8-4.7-1.3-7.1
		C286.9,385.7,276.8,373,286.9,372.2z"/>
	<path class="st8" d="M364.7,388c0,4.5-0.1,9-0.1,13.4c-0.4,2.9-0.9,5.9-1.3,8.8c-3.4-7.9-4.1-15.5-1.7-23.2
		c0.1-0.2,1.2-0.3,1.7-0.2C363.7,387,364.2,387.6,364.7,388z"/>
	<path class="st9" d="M561.9,467.6c5.5,5.2,11.1,10.5,16.6,15.7C568,483.3,562.6,477.9,561.9,467.6z"/>
	<path class="st8" d="M104.3,258c-5-1-10-2.8-15.1-0.7C94.6,248.8,99.7,248.1,104.3,258z"/>
	<path class="st5" d="M367.3,278.4c0-6.4-0.1-12.8-0.1-19.1C373.9,265.6,373.8,272,367.3,278.4z"/>
	<path class="st10" d="M332.5,432.8c0.3-4.9,0.7-9.8,1-14.6C337.6,423.3,339.9,428.4,332.5,432.8z"/>
	<path class="st11" d="M279.3,394.4c2.2-1.2,4.4-2.4,6.6-3.6c0,4.2,0,8.4,0,12.8C280.5,402.6,280,398.4,279.3,394.4z"/>
	<path class="st0" d="M653.8,394.5c-1.9,20-14.8,32.2-30.3,42.5c-6.4-0.8-12.7-0.3-19.1-0.2c-11.2-7.2-13.5-18.7-15.1-30.6
		c2.4-11.5,2.1-23,0.1-34.4c1.1-10.5,5.8-19.7,11-28.5c6.8-11.4,17.3-23.8,30-20c10.9,3.3,23.5,13.1,23.4,29.2
		C651.8,366.4,652,380.4,653.8,394.5z"/>
	<path class="st12" d="M653.8,394.5c-4.8-14-5-28.1,0.1-42.1C656.1,366.4,655.7,380.5,653.8,394.5z"/>
	<path class="st5" d="M589.5,371.7c4.9,11.5,5.1,23-0.1,34.4C587.7,394.7,586.2,383.2,589.5,371.7z"/>
	<path class="st13" d="M604.4,436.8c6.4-4.9,12.8-5.1,19.1,0.2C617.1,440.7,610.7,442.4,604.4,436.8z"/>
	<path class="st0" d="M415.1,371.7c1.1-9.8,5.3-18.4,10.1-26.8c6.9-12.3,17.6-25.6,30.9-21.6c12.3,3.7,25.2,15.2,23.7,32.9
		c-2.5,12.7-2.1,25.5-0.3,38.3c-1.9,20-14.8,32.2-30.3,42.5c-6.4-0.8-12.7-0.3-19.1-0.2c-11.2-7.2-13.5-18.7-15.1-30.6
		C417.3,394.7,417.1,383.2,415.1,371.7z"/>
	<path class="st14" d="M479.4,394.5c-4.8-12.8-5.3-25.6,0.3-38.3C481.3,369,481.3,381.7,479.4,394.5z"/>
	<path class="st5" d="M415.1,371.7c4.9,11.5,5.1,23-0.1,34.4C413.3,394.7,411.8,383.2,415.1,371.7z"/>
	<path class="st13" d="M430,436.8c6.4-4.9,12.8-5.1,19.1,0.2C442.7,440.7,436.3,442.4,430,436.8z"/>
</g>
</svg>
